<?xml version="1.0" encoding="utf-8"?>
<!-- Generator: Adobe Illustrator 26.0.2, SVG Export Plug-In . SVG Version: 6.00 Build 0)  -->
<svg version="1.1" id="Layer_1" xmlns="http://www.w3.org/2000/svg" xmlns:xlink="http://www.w3.org/1999/xlink" x="0px" y="0px"
	 width="144px" height="144px" viewBox="0 0 144 144" style="enable-background:new 0 0 144 144;" xml:space="preserve">
<style type="text/css">
	.st0{fill:none;stroke:#000000;stroke-width:0.75;stroke-miterlimit:10;}
	.st1{fill:#FFFFFF;stroke:#000000;stroke-width:0.5;stroke-linecap:round;stroke-linejoin:round;stroke-miterlimit:10;}
</style>
<g>
	<path d="M32.3,69.2h-2.4l-2.8-9.6H29l2.1,7.6l2.1-7.6H35L32.3,69.2z"/>
	<path d="M42.2,69.2l-0.6-1.9H38l-0.6,1.9h-1.9l3.2-9.6h2l3.3,9.6H42.2z M39.8,61.3l-1.3,4.4h2.6L39.8,61.3z"/>
	<path d="M45.9,69.2v-9.6h1.8v8h3.8v1.6H45.9z"/>
	<path d="M53.7,69.2v-9.6h6.8v1.6h-5v2.3h4.6V65h-4.6v2.6h5.4v1.6H53.7z"/>
	<path d="M68.9,69.2l-4.2-6.7l0.1,6.7H63v-9.6h1.6l4.2,6.8l-0.2-6.8h1.8v9.6C70.4,69.2,68.9,69.2,68.9,69.2z"/>
	<path d="M77.3,61.2v8h-1.8v-8h-2.6v-1.6h7v1.6C79.9,61.2,77.3,61.2,77.3,61.2z"/>
	<path d="M82.4,69.2v-9.6h1.8v9.6H82.4z"/>
	<path d="M93,69.2l-4.2-6.7l0.1,6.7h-1.8v-9.6h1.6l4.2,6.8l-0.2-6.8h1.8v9.6C94.5,69.2,93,69.2,93,69.2z"/>
	<path d="M97.6,69.2v-9.6h6.8v1.6h-5v2.3h4.6V65h-4.6v2.6h5.4v1.6H97.6z"/>
	<path d="M106.1,63.3v-0.8c0.5-0.2,0.7-0.4,0.7-0.9c0-0.1,0-0.1,0-0.2H106v-1.9h1.8v2C107.8,62.6,107.1,63.2,106.1,63.3z"/>
	<path d="M116,68.4c-1.2,1-2.7,1-3.1,1c-0.6,0-2.4,0-3.7-1.4c-0.2-0.2-0.3-0.4-0.5-0.6l1.5-1c0.4,0.6,1.2,1.4,3,1.4
		c0.1,0,0.4,0,0.7-0.1c0.2,0,1.1-0.3,1.1-1.2c0-0.1,0-0.4-0.2-0.6c-0.3-0.4-1.2-0.6-1.7-0.7L112,65c-0.5-0.1-1-0.2-1.5-0.4
		c-0.4-0.2-1.4-0.8-1.4-2.2c0-0.2,0-0.8,0.4-1.4c0.4-0.7,1.5-1.6,3.4-1.6c0.9,0,2.5,0.1,3.9,1.9l-1.5,1.1c-0.3-0.5-1-1.4-2.5-1.4
		c-0.1,0-1.3,0-1.7,0.7c-0.1,0.1-0.1,0.3-0.1,0.4c0,0.2,0,0.3,0.1,0.4c0.2,0.4,0.8,0.5,1.6,0.7l1,0.2c0.9,0.2,1.9,0.5,2.6,1.2
		c0.3,0.3,0.6,0.7,0.6,1.6C116.9,67.2,116.6,67.8,116,68.4z"/>
	<path d="M32.8,84.4v-9.6h6.8v1.6h-5v2.3h4.6v1.5h-4.6v2.6H40v1.6H32.8z"/>
	<path d="M48,84.4l-2.2-3.5l-2.2,3.5h-2.1l3.2-5.2l-2.8-4.4H44l1.7,2.7l1.7-2.7h2.1l-2.7,4.4l3.2,5.2H48z"/>
	<path d="M59,83c-0.4,0.6-1.5,1.6-3.4,1.6c-0.3,0-1.1,0-1.9-0.4c-1.1-0.5-2.6-1.8-2.6-4.7c0-0.5,0-1.9,0.9-3.1
		c0.5-0.7,1.6-1.9,3.7-1.9c1.8,0,2.8,0.9,3.2,1.5c0.3,0.5,0.5,0.9,0.7,1.4L57.8,78c0-0.1-0.1-0.4-0.2-0.8c-0.4-0.7-1.1-1-1.8-1
		c-0.5,0-0.9,0.2-1.1,0.3c-0.7,0.4-1.5,1.3-1.5,3.1c0,0.3,0,1.4,0.6,2.3c0.2,0.3,0.4,0.5,0.7,0.7c0.6,0.4,1.1,0.4,1.4,0.4
		c0.7,0,1.3-0.3,1.8-0.9c0.2-0.2,0.3-0.5,0.4-0.6c0.1-0.1,0.1-0.2,0.2-0.5l1.7,0.7C59.6,82.2,59.4,82.6,59,83z"/>
	<path d="M62.2,84.4v-9.6H64v8h3.8v1.6H62.2z"/>
	<path d="M77.6,82.5c-0.3,1-1.4,2.2-3.8,2.2c-1.1,0-2.3-0.3-3-1.1c-0.1-0.1-0.4-0.5-0.6-1C70,82,70,81.6,70,80.5v-5.7h1.8v5.9
		c0,0.6,0,0.8,0.1,1.1c0.2,0.6,0.7,1.1,2,1.1c0.2,0,1.5,0,1.9-1.1c0.1-0.3,0.1-0.6,0.1-1.2v-5.8h1.8v5.5
		C77.8,81.5,77.8,81.9,77.6,82.5z"/>
	<path d="M87.3,83.7c-1.2,1-2.7,1-3.1,1c-0.6,0-2.4,0-3.7-1.4c-0.2-0.2-0.3-0.4-0.5-0.6l1.5-1c0.4,0.6,1.2,1.4,3,1.4
		c0.1,0,0.4,0,0.7-0.1c0.2,0,1.1-0.3,1.1-1.2c0-0.1,0-0.4-0.2-0.6c-0.3-0.4-1.2-0.6-1.7-0.7l-1.1-0.3c-0.5-0.1-1-0.2-1.5-0.4
		c-0.4-0.2-1.4-0.8-1.4-2.2c0-0.2,0-0.8,0.4-1.4c0.4-0.7,1.5-1.6,3.4-1.6c0.9,0,2.5,0.1,3.9,1.9l-1.5,1.1c-0.3-0.5-1-1.4-2.5-1.4
		c-0.1,0-1.3,0-1.7,0.7c-0.1,0.1-0.1,0.3-0.1,0.4c0,0.2,0,0.3,0.1,0.4c0.2,0.4,0.8,0.5,1.6,0.7l1,0.2c0.9,0.2,1.9,0.5,2.6,1.2
		c0.3,0.3,0.6,0.7,0.6,1.6C88.2,82.4,88,83.1,87.3,83.7z"/>
	<path d="M90.9,84.4v-9.6h1.8v9.6H90.9z"/>
	<path d="M100.2,84.4h-2.4L95,74.8h1.9l2.1,7.6l2.1-7.6h1.8L100.2,84.4z"/>
	<path d="M105.2,84.4v-9.6h6.8v1.6h-5v2.3h4.6v1.5H107v2.6h5.4v1.6H105.2z"/>
</g>
<circle class="st0" cx="72" cy="72" r="56.4"/>
<path class="st1" d="M20.2,27.1c0,0-0.1-0.6,0.2-1.1c0.3-0.4,0.6-0.6,1.1-0.6s1.2,0.6,1.3,1.2c0.1,0.6,0.1,1.5-0.4,2.3
	c-0.4,0.7-1.6,2-1.6,2s-1.3-0.6-1.9-1.1s-1.2-1.2-1.3-1.7c-0.1-0.4-0.2-1.1,0.1-1.6c0.2-0.5,0.7-0.7,1.1-0.7s0.8,0.4,1,0.5
	S20.2,27.1,20.2,27.1z"/>
<path class="st1" d="M128.8,106.3c0,0,0.2-0.6,0.7-0.9c0.4-0.3,0.8-0.2,1.3,0c0.4,0.2,0.8,1.1,0.6,1.7s-0.7,1.4-1.4,1.8
	c-0.7,0.5-2.4,1.1-2.4,1.1s-0.9-1.2-1.2-1.8c-0.3-0.7-0.5-1.6-0.4-2.1s0.4-1.1,0.8-1.4s1-0.3,1.3-0.1c0.4,0.2,0.6,0.7,0.6,0.9
	C128.8,105.7,128.8,106.3,128.8,106.3z"/>
<path class="st1" d="M121.5,114c0,0-0.1-0.3-0.1-0.6c0.1-0.3,0.2-0.4,0.5-0.5s0.7,0.1,0.9,0.4c0.2,0.3,0.3,0.8,0.2,1.2
	c-0.1,0.5-0.5,1.3-0.5,1.3s-0.8-0.1-1.2-0.3c-0.4-0.2-0.8-0.5-1-0.7c-0.1-0.2-0.3-0.6-0.2-0.8c0-0.3,0.3-0.5,0.5-0.5
	c0.2-0.1,0.5,0.1,0.6,0.1C121.3,113.8,121.5,114,121.5,114z"/>
</svg>
