<?xml version="1.0" encoding="utf-8"?>
<!-- Generator: Adobe Illustrator 26.0.1, SVG Export Plug-In . SVG Version: 6.00 Build 0)  -->
<svg version="1.1" id="Layer_1" xmlns="http://www.w3.org/2000/svg" xmlns:xlink="http://www.w3.org/1999/xlink" x="0px" y="0px"
	 width="144px" height="144px" viewBox="0 0 144 144" enable-background="new 0 0 144 144" xml:space="preserve">
<circle fill="none" stroke="#FFFFFF" stroke-width="0.75" stroke-miterlimit="10" cx="72" cy="72" r="65.9"/>
<g>
	<path fill="#FFFFFF" d="M46,52.1h-2.1v-2.3c0-0.6,0.2-1.1,0.5-1.5c0.3-0.3,0.8-0.6,1.5-0.7v0.9c-0.4,0.2-0.6,0.3-0.7,0.5
		S45,49.4,45,49.9h1V52.1z M48.7,52.1h-2.1v-2.4c0-0.4,0-0.6,0.1-0.9c0.1-0.2,0.3-0.4,0.5-0.6c0.4-0.3,0.8-0.4,1.3-0.4v0.8
		c-0.4,0.1-0.6,0.3-0.7,0.5c-0.1,0.2-0.1,0.5-0.1,0.9h1V52.1z"/>
	<path fill="#FFFFFF" d="M59.6,55.8c0,1.2-0.5,2.1-1.5,2.7c-0.6,0.3-1.5,0.5-2.6,0.5H55h-4.4V47.8h4c0.8,0,1.3,0,1.7,0
		c0.8,0.1,1.5,0.4,2,0.9s0.7,1.1,0.7,1.8c0,0.2,0,0.4,0,0.5c0,0.2-0.1,0.4-0.3,0.8c-0.2,0.3-0.4,0.6-0.7,0.7
		c-0.2,0.1-0.5,0.2-0.8,0.3c0.4,0.1,0.7,0.2,0.9,0.3C59.1,53.7,59.6,54.6,59.6,55.8z M56.9,50.9c0-0.3-0.1-0.5-0.3-0.8
		c-0.3-0.4-1-0.6-1.9-0.6h-0.4h-1.6v2.8h0.7c0.7,0,1.3,0,1.7,0c0.7,0,1.1-0.2,1.4-0.5C56.8,51.5,56.9,51.2,56.9,50.9z M57.4,55.7
		c0-0.7-0.3-1.2-0.9-1.5c-0.4-0.2-1.1-0.3-2.3-0.3h-0.4h-1.2v3.3H55h0.3c0.8,0,1.4-0.2,1.7-0.6C57.3,56.4,57.4,56.1,57.4,55.7z"/>
	<path fill="#FFFFFF" d="M71,59h-8.4V47.8h8v1.9h-6v2.7h5.5v1.8h-5.5v3H71V59z"/>
	<path fill="#FFFFFF" d="M82.4,55.7c0,1-0.4,1.9-1.1,2.5c-0.9,0.8-2.1,1.2-3.7,1.2c-1.9,0-3.3-0.6-4.4-1.7c-0.2-0.2-0.4-0.5-0.5-0.7
		l1.8-1.2c0.8,1.1,1.9,1.7,3.5,1.7c0.3,0,0.6,0,0.8-0.1c0.1,0,0.3-0.1,0.5-0.1c0.2-0.1,0.4-0.2,0.6-0.4s0.3-0.5,0.3-0.8
		s-0.1-0.5-0.2-0.7c-0.1-0.1-0.2-0.2-0.3-0.3c-0.1-0.1-0.3-0.1-0.4-0.2s-0.3-0.1-0.4-0.1s-0.3-0.1-0.5-0.1s-0.3-0.1-0.4-0.1
		l-1.3-0.3c-0.8-0.2-1.4-0.4-1.7-0.5c-1.1-0.6-1.6-1.4-1.6-2.6c0-0.6,0.1-1.2,0.4-1.7s0.8-1,1.5-1.3s1.5-0.5,2.6-0.5
		c1.9,0,3.4,0.8,4.6,2.3l-2,1c-0.7-1.1-1.7-1.7-2.9-1.7l0,0c-1,0-1.7,0.3-2,0.9c-0.1,0.2-0.1,0.3-0.1,0.5s0,0.4,0.1,0.5
		c0.1,0.2,0.3,0.4,0.6,0.5c0.3,0.1,0.7,0.2,1.3,0.4l1.2,0.3c0.7,0.1,1.3,0.3,1.8,0.5s0.9,0.5,1.2,0.9C82.1,54.3,82.4,54.9,82.4,55.7
		z"/>
	<path fill="#FFFFFF" d="M92.5,49.7h-3.1V59h-2.1v-9.4h-3.1v-1.9h8.3C92.5,47.7,92.5,49.7,92.5,49.7z"/>
	<path fill="#FFFFFF" d="M27.2,67.7H24V77h-2.1v-9.4h-3.1v-1.9h8.3v2H27.2z"/>
	<path fill="#FFFFFF" d="M32.3,73.1h-4.6v-1.8h4.6V73.1z"/>
	<path fill="#FFFFFF" d="M43.4,73.7c0,1-0.4,1.9-1.1,2.5c-0.9,0.8-2.1,1.2-3.7,1.2c-1.9,0-3.3-0.6-4.4-1.7c-0.2-0.2-0.4-0.5-0.5-0.7
		l1.8-1.2c0.8,1.1,1.9,1.7,3.5,1.7c0.3,0,0.6,0,0.8-0.1c0.1,0,0.3-0.1,0.5-0.1c0.2-0.1,0.4-0.2,0.6-0.4s0.3-0.5,0.3-0.8
		s-0.1-0.5-0.2-0.7c-0.1-0.1-0.2-0.2-0.3-0.3c-0.1-0.1-0.3-0.1-0.4-0.2c-0.2-0.1-0.3-0.1-0.4-0.1c-0.1,0-0.3-0.1-0.5-0.1
		S39,72.4,39,72.4l-1.3-0.3c-0.8-0.2-1.4-0.4-1.7-0.5c-1.1-0.6-1.6-1.4-1.6-2.6c0-0.6,0.1-1.2,0.4-1.7c0.3-0.5,0.8-1,1.5-1.3
		c0.7-0.4,1.5-0.5,2.6-0.5c1.9,0,3.4,0.8,4.6,2.3L41.6,69c-0.7-1.1-1.7-1.7-2.9-1.7l0,0c-1,0-1.7,0.3-2,0.9
		c-0.1,0.2-0.1,0.3-0.1,0.5s0,0.4,0.1,0.5c0.1,0.2,0.3,0.4,0.6,0.5s0.7,0.2,1.3,0.4l1.2,0.3c0.7,0.1,1.3,0.3,1.8,0.5
		s0.9,0.5,1.2,0.9C43.2,72.3,43.4,72.9,43.4,73.7z"/>
	<path fill="#FFFFFF" d="M54.7,77h-2.1v-5.1h-4.8V77h-2.1V65.8h2.1V70h4.8v-4.3h2.1V77z"/>
	<path fill="#FFFFFF" d="M59.6,77h-2.1V65.8h2.1V77z"/>
	<path fill="#FFFFFF" d="M70.9,77h-2.4l-2.2-4.2h-1.9V77h-2.1V65.8h4.6c1.3,0,2.3,0.5,3,1.4c0.5,0.6,0.7,1.3,0.7,2.2
		c0,0.5-0.1,0.9-0.2,1.3c-0.1,0.3-0.4,0.7-0.7,1c-0.3,0.4-0.8,0.6-1.3,0.8L70.9,77z M68.5,69.3c0-0.6-0.2-1.1-0.7-1.4
		c-0.3-0.2-0.9-0.3-1.7-0.3h-1.7v3.5h0.8c0.5,0,0.9,0,1.1,0s0.5,0,0.8-0.1c0.3,0,0.5-0.1,0.6-0.2C68.2,70.5,68.5,70,68.5,69.3z"/>
	<path fill="#FFFFFF" d="M80.6,67.7h-3.1V77h-2.1v-9.4h-3.1v-1.9h8.3C80.6,65.7,80.6,67.7,80.6,67.7z"/>
	<path fill="#FFFFFF" d="M95.5,73.8c0,1.2-0.5,2.1-1.5,2.7c-0.6,0.3-1.5,0.5-2.6,0.5h-0.5h-4.4V65.8h4c0.8,0,1.3,0,1.7,0
		c0.8,0.1,1.5,0.4,2,0.9s0.7,1.1,0.7,1.8c0,0.2,0,0.4,0,0.5c0,0.2-0.1,0.4-0.3,0.8c-0.2,0.3-0.4,0.6-0.7,0.7
		c-0.2,0.1-0.5,0.2-0.8,0.3c0.4,0.1,0.7,0.2,0.9,0.3C95,71.7,95.5,72.6,95.5,73.8z M92.8,68.9c0-0.3-0.1-0.5-0.3-0.8
		c-0.3-0.4-1-0.6-1.9-0.6h-0.4h-1.6v2.8h0.7c0.7,0,1.3,0,1.7,0c0.7,0,1.1-0.2,1.4-0.5S92.8,69.2,92.8,68.9z M93.3,73.7
		c0-0.7-0.3-1.2-0.9-1.5c-0.4-0.2-1.1-0.3-2.3-0.3h-0.4h-1.2v3.3H91h0.3c0.8,0,1.4-0.2,1.7-0.6C93.2,74.4,93.3,74.1,93.3,73.7z"/>
	<path fill="#FFFFFF" d="M106.8,77h-2.4l-2.2-4.2h-1.9V77h-2.1V65.8h4.6c1.3,0,2.3,0.5,3,1.4c0.5,0.6,0.7,1.3,0.7,2.2
		c0,0.5-0.1,0.9-0.2,1.3c-0.1,0.3-0.4,0.7-0.7,1c-0.3,0.4-0.8,0.6-1.3,0.8L106.8,77z M104.4,69.3c0-0.6-0.2-1.1-0.7-1.4
		c-0.3-0.2-0.9-0.3-1.7-0.3h-1.7v3.5h0.8c0.5,0,0.9,0,1.1,0s0.5,0,0.8-0.1c0.3,0,0.5-0.1,0.6-0.2C104.1,70.5,104.4,70,104.4,69.3z"
		/>
	<path fill="#FFFFFF" d="M118.6,77h-2.3l-0.7-2.2h-4.2l-0.7,2.2h-2.3l3.8-11.3h2.4L118.6,77z M115.2,73l-1.6-5.2L112,73H115.2z"/>
	<path fill="#FFFFFF" d="M121.6,68.2c0,0.6-0.2,1.1-0.7,1.5c-0.4,0.3-0.8,0.4-1.2,0.4l0,0v-0.8c0.6-0.1,0.9-0.5,0.9-1.1v-0.1V68h-1
		v-2.2h2.1v2.4H121.6z M124.3,68c0,0.7-0.2,1.2-0.5,1.5s-0.8,0.6-1.5,0.7v-0.9c0.3-0.1,0.5-0.2,0.6-0.3c0.1-0.1,0.2-0.3,0.2-0.4
		s0-0.4,0-0.7h-1v-2.2h2.1V68H124.3z"/>
	<path fill="#FFFFFF" d="M35,95h-1.3l-2.3-3.6h-2.2V95H28v-8.5h3.2h0.5H32c1,0,1.6,0.3,2.1,0.9c0.3,0.4,0.5,1,0.5,1.6
		c0,1-0.4,1.7-1.1,2.1c-0.2,0.1-0.5,0.2-0.9,0.3L35,95z M33.5,89c0-0.6-0.2-1-0.7-1.3c-0.3-0.2-0.7-0.2-1.2-0.2h-0.2h-2.2v3h2.3h0.1
		c0.3,0,0.5,0,0.7,0c0.2,0,0.4-0.1,0.6-0.2c0.2-0.1,0.4-0.2,0.5-0.4C33.4,89.7,33.5,89.4,33.5,89z"/>
	<path fill="#FFFFFF" d="M42.7,95h-6v-8.5h5.8v1h-4.8v2.6H42v1h-4.1V94h4.9v1H42.7z"/>
	<path fill="#FFFFFF" d="M51.6,95h-1.2l-0.9-2.6h-3.2l-1,2.6h-1.2l3.2-8.5h1.2L51.6,95z M49.2,91.5L47.9,88l-1.3,3.5H49.2z"/>
	<path fill="#FFFFFF" d="M59,95h-5.2v-8.5h1.1V94H59V95z"/>
	<path fill="#FFFFFF" d="M71.3,92.6c0,0.7-0.2,1.3-0.7,1.7c-0.6,0.7-1.5,1-2.6,1c-0.9,0-1.7-0.2-2.3-0.6c-0.3-0.2-0.5-0.4-0.7-0.6
		c-0.3-0.4-0.5-1-0.6-1.7l1.2-0.2c0,0.6,0.2,1.2,0.6,1.5c0.4,0.4,1.1,0.7,1.9,0.7c0.3,0,0.6,0,0.8-0.1c0.9-0.2,1.3-0.8,1.3-1.6
		c0-0.4-0.1-0.7-0.4-1c-0.2-0.2-0.6-0.3-1.2-0.4l-0.7-0.2c-0.9-0.2-1.5-0.4-1.9-0.6c-0.8-0.4-1.2-1-1.2-1.8c0-0.7,0.3-1.2,0.8-1.7
		c0.6-0.5,1.3-0.7,2.2-0.7h0.1c1,0,1.7,0.2,2.3,0.6c0.3,0.2,0.5,0.5,0.7,0.8s0.3,0.7,0.4,1.2L70.1,89c0-0.2,0-0.4-0.1-0.5
		c-0.1-0.4-0.3-0.7-0.7-0.9s-0.8-0.4-1.4-0.4c-0.8,0-1.3,0.2-1.6,0.6C66.1,88,66,88.3,66,88.6c0,0.2,0.1,0.4,0.2,0.6l0.1,0.1
		l0.1,0.1c0,0,0.1,0.1,0.2,0.1s0.1,0.1,0.1,0.1s0.1,0,0.2,0.1s0.1,0,0.2,0.1s0.1,0,0.2,0s0.1,0,0.2,0c0,0,0.1,0,0.2,0h0.1l0.9,0.2
		c0.2,0,0.4,0.1,0.7,0.2c0.9,0.2,1.5,0.6,1.8,1.2C71.2,91.8,71.3,92.2,71.3,92.6z"/>
	<path fill="#FFFFFF" d="M74.8,95h-1.1v-8.5h1.1V95z"/>
	<path fill="#FFFFFF" d="M85.5,95h-1.1l0.2-7.1L81.9,95H81l-2.6-7l0.1,7h-1.1v-8.5h1.5l2.6,6.9l2.6-6.9h1.5L85.5,95L85.5,95z"/>
	<path fill="#FFFFFF" d="M94.9,89c0,0.6-0.1,1.1-0.4,1.5s-0.7,0.7-1.2,0.9c-0.3,0.1-0.7,0.1-1.3,0.1h-2.4V95h-1.1v-8.5h3.7
		c0.3,0,0.5,0,0.7,0c0.1,0,0.3,0,0.5,0.1s0.4,0.1,0.6,0.3C94.6,87.4,94.9,88,94.9,89z M93.8,88.9c0-0.2,0-0.4-0.1-0.6
		c-0.1-0.4-0.4-0.6-0.9-0.8c-0.2,0-0.4-0.1-0.7-0.1h-2.6v2.9h2.4h0.2c0.3,0,0.5,0,0.7-0.1c0.3-0.1,0.6-0.3,0.7-0.5
		C93.7,89.6,93.8,89.3,93.8,88.9z"/>
	<path fill="#FFFFFF" d="M101.6,95h-5.2v-8.5h1.1V94h4.1V95z"/>
	<path fill="#FFFFFF" d="M109.2,95h-6v-8.5h5.8v1h-4.8v2.6h4.1v1h-4.1V94h4.9L109.2,95L109.2,95z"/>
</g>
</svg>
