<?xml version="1.0" encoding="utf-8"?>
<!-- Generator: Adobe Illustrator 25.4.1, SVG Export Plug-In . SVG Version: 6.00 Build 0)  -->
<svg version="1.1" id="Layer_1" xmlns="http://www.w3.org/2000/svg" xmlns:xlink="http://www.w3.org/1999/xlink" x="0px" y="0px"
	 width="132px" height="132px" viewBox="0 0 132 132" style="enable-background:new 0 0 132 132;" xml:space="preserve">
<style type="text/css">
	.st0{fill:#FFFFFF;}
</style>
<g>
	<path class="st0" d="M32.1,9.7c1.8-1.1,3.4-0.6,4.1,0.5c0.4,0.7,0.6,1.9-0.3,2.8c0.9-0.4,2.4-0.4,3.4,1.2c0.7,1.2,0.9,3-1.4,4.4
		l-4.1,2.6l-5.6-9L32.1,9.7z M32,14.8l1.6-1c0.7-0.5,1.5-1.2,0.9-2.1s-1.6-0.5-2.2-0.1l-1.7,1.1L32,14.8z M34.5,18.7l2.2-1.3
		c1.1-0.7,1.2-1.5,0.8-2.2c-0.8-1.2-2-0.6-2.8-0.2l-1.8,1.1L34.5,18.7z M49.9,8.9c0.3,0.8,0.4,1.2,0.5,1.8c0,1.1-0.6,2.8-3.1,3.7
		c-1.6,0.6-3.5,0.5-4.6-0.9c-0.3-0.4-0.5-0.9-0.9-1.9l-2.1-5.9l1.8-0.7l2.2,6.1c0.2,0.6,0.3,0.8,0.5,1c0.4,0.5,1.1,0.9,2.4,0.4
		c0.2-0.1,1.6-0.6,1.6-1.8c0-0.4-0.1-0.6-0.3-1.3l-2.1-6l1.8-0.7L49.9,8.9z M57.4,7.3l0.6,4.1l-1.9,0.3l-0.6-4.1L51,1.9l2.2-0.3l3,4
		l1.5-4.7l2.1-0.3L57.4,7.3z M75.5,11.6c0-0.2,1.2-8.6,1.2-8.6l-3.3,8.4l-1.7-0.2l-1.3-8.9c0,0-0.8,8.3-0.8,8.6l-1.9-0.2l1.2-10.4
		l2.9,0.3l1.1,8l3-7.4l2.9,0.3l-1.2,10.4L75.5,11.6z M87.7,3.8c3,1,3.9,4.1,3,6.8c-0.8,2.2-3.1,4.8-6.6,3.6c-3-1-3.9-4.1-2.9-6.8
		C82.1,4.4,84.9,2.8,87.7,3.8z M84.7,12.5c1.4,0.5,3.3-0.1,4.1-2.3c0.6-1.7,0.3-3.9-1.6-4.6C85.5,4.9,83.9,5.9,83,8
		C82.5,9.5,82.5,11.8,84.7,12.5z M99.8,9.7c1.8,1,2.3,3,1.3,4.6c-0.5,0.9-1.5,1.8-3.3,1.4l-0.1,4.9l-1.9-1.1l0.2-4.4l-1.5-0.9
		l-2,3.4l-1.7-1L96,7.5L99.8,9.7z M95.3,12.8l1.3,0.8c1.2,0.7,2.2,0.8,2.9-0.3c0.6-1,0.2-1.8-0.9-2.4L97,9.9L95.3,12.8z M99.6,22.2
		l6.9-8l5.6,4.9l-1.1,1.3l-4.2-3.7l-1.6,1.8l3.9,3.4l-1.1,1.3l-3.9-3.4l-1.8,2.1l4.5,3.9l-1.1,1.3L99.6,22.2z M112.1,29.7l2.9-2.1
		l2.1,2.9l-2.9,2.1L112.1,29.7z M124.5,43.3c0.4-0.5,1-1.6,0.3-3.2c-0.2-0.4-0.9-1.7-1.9-1.3c-0.7,0.3-0.6,1.1-0.4,2.2l0.2,1.1
		c0.3,1.6,0.5,3.6-1.4,4.4c-2.3,1-4.2-1-4.9-2.8c-0.7-1.6-0.9-3.6,0.2-5.1l1.7,1c-0.4,0.7-0.9,1.8-0.1,3.6c0.5,1,1.2,1.6,2,1.3
		c0.8-0.3,0.7-1,0.4-2.4l-0.3-1.3c-0.3-1.3-0.4-3.1,1.4-4c1.7-0.7,3.6,0.1,4.7,2.4c0.4,0.8,1,2.7-0.2,4.8L124.5,43.3z M120.3,55.7
		l1.8-1l-0.9-3.9l-2.1-0.1l-0.5-2l11,1l0.5,2.1l-9.4,5.9L120.3,55.7z M128,51.3l-5-0.3l0.7,2.9L128,51.3z M121.1,63.5l-0.2-2.7
		l10.3-3.8l0.1,2l-8.2,3l8.5,1.7l0.1,2L121.1,63.5z M121.2,68.1l10.4,1l-0.7,7.4l-1.7-0.2l0.5-5.5l-2.4-0.2l-0.5,5l-1.6-0.2l0.5-5
		l-2.8-0.3l-0.6,5.8l-1.7-0.2L121.2,68.1z M124,90.2c1-0.3,1.3-0.8,1.6-1.3l-2.2-0.8c-0.1,0.2-0.7,1.3-1.6,1.8
		c-1.1,0.7-2,0.4-2.6,0.2c-1.9-0.7-2.3-2.7-1.8-4.3l-1.6-0.6l0.5-1.3l1.6,0.6c0.8-1.4,1.3-1.9,3.1-2.6l0.5,1.8
		c-0.4,0.1-1.5,0.5-1.9,1.3l2.7,1c0.7-1.3,1.4-1.9,2.1-2.1c0.3-0.1,0.9-0.1,1.5,0.1c0.3,0.1,1,0.4,1.5,1.2c0.3,0.5,0.6,1.4,0.3,2.8
		l1.5,0.6l-0.5,1.3l-1.5-0.6c-0.8,1.6-2,2.2-2.7,2.4L124,90.2z M119.2,86.5c-0.1,0.4-0.1,1.5,0.8,1.8c0.9,0.3,1.5-0.6,1.7-0.9
		L119.2,86.5z M126.2,87.7c0.1-0.3,0.1-1.2-0.6-1.5c-0.4-0.2-0.8-0.1-1.3,0.8L126.2,87.7z M118.9,99.8c1-0.1,1.5-0.6,1.8-1l-2-1.2
		c-0.1,0.2-0.9,1.1-1.9,1.5c-1.2,0.5-2.1,0-2.4-0.2c-1.7-1-1.8-3-1.1-4.6l-1.4-0.8l0.7-1.2l1.4,0.8c1-1.2,1.6-1.7,3.5-1.9l0.2,1.8
		c-0.4,0-1.6,0.3-2.1,1l2.4,1.4c0.9-1.2,1.7-1.6,2.4-1.7c0.3,0,0.9,0,1.4,0.4c0.3,0.2,0.9,0.6,1.2,1.5c0.2,0.6,0.3,1.5-0.2,2.8
		l1.4,0.8l-0.7,1.2l-1.4-0.8c-1,1.4-2.3,1.8-3.1,1.9L118.9,99.8z M114.8,95.3c-0.1,0.4-0.4,1.4,0.5,1.9c0.8,0.5,1.6-0.4,1.8-0.6
		L114.8,95.3z M121.5,97.7c0.1-0.3,0.3-1.2-0.4-1.6c-0.4-0.2-0.8-0.2-1.4,0.5L121.5,97.7z M106.9,108l2.4,2.7l-2.7,2.4l-2.4-2.7
		L106.9,108z M97.7,123.4c-1.9,1.1-3.4,0.5-4.1-0.7c-0.4-0.7-0.6-1.9,0.4-2.8c-0.9,0.3-2.4,0.3-3.4-1.3c-0.7-1.2-0.7-3,1.6-4.4
		l4.2-2.3l5.2,9.2L97.7,123.4z M95.8,114.4l-2.2,1.3c-1.1,0.6-1.2,1.5-0.9,2.1c0.7,1.3,2,0.7,2.8,0.3l1.9-1.1L95.8,114.4z M98,118.4
		l-1.7,1c-0.7,0.4-1.5,1.2-1,2.1c0.5,0.9,1.6,0.6,2.2,0.2l1.7-1L98,118.4z M80.1,123.6c-0.3-0.8-0.4-1.3-0.4-1.8
		c0-1.1,0.7-2.8,3.2-3.6c1.6-0.5,3.5-0.4,4.6,1c0.3,0.5,0.5,0.9,0.8,2l1.9,5.9l-1.9,0.6l-1.9-6.1c-0.2-0.6-0.3-0.8-0.4-1.1
		c-0.4-0.5-1.1-0.9-2.4-0.5c-0.2,0.1-1.6,0.5-1.6,1.7c0,0.4,0.1,0.6,0.3,1.3l1.9,6l-1.8,0.6L80.1,123.6z M72.4,124.9l-0.5-4.1
		l1.9-0.2l0.5,4.1l4.3,5.9l-2.2,0.3l-2.8-4.1l-1.7,4.6l-2.1,0.3L72.4,124.9z M54.6,120c0,0.2-1.5,8.6-1.5,8.6l3.6-8.2l1.7,0.3
		l0.9,8.9c0,0,1-8.3,1.1-8.6l1.9,0.3l-1.5,10.4l-2.9-0.4l-0.8-8.1l-3.2,7.4l-2.9-0.4l1.5-10.4L54.6,120z M42,127.4
		c-3-1.1-3.8-4.3-2.7-6.9c0.9-2.2,3.3-4.7,6.7-3.4c2.9,1.1,3.8,4.2,2.7,6.9C47.6,126.9,44.9,128.5,42,127.4z M45.4,118.8
		c-1.4-0.6-3.3,0-4.2,2.2c-0.7,1.7-0.5,3.9,1.4,4.7c1.6,0.6,3.3-0.2,4.2-2.3C47.4,121.9,47.4,119.6,45.4,118.8z M30.2,120.8
		c-1.7-1.1-2.1-3.1-1.1-4.7c0.5-0.8,1.6-1.7,3.3-1.3l0.3-4.9l1.9,1.2l-0.4,4.4l1.5,0.9l2.1-3.3l1.6,1l-5.7,8.9L30.2,120.8z
		 M34.9,118l-1.3-0.8c-1.2-0.7-2.1-0.9-2.9,0.1c-0.6,0.9-0.2,1.7,0.8,2.4l1.5,0.9L34.9,118z M30.8,108.5l-7.2,7.7l-5.4-5.1l1.2-1.3
		l4.1,3.8l1.7-1.8l-3.7-3.5l1.1-1.2l3.7,3.5l1.9-2l-4.3-4.1l1.2-1.3L30.8,108.5z M18.7,100.4l-3,2l-2-3l3-2L18.7,100.4z M6.8,86.5
		c-0.3,0.5-1,1.5-0.4,3.1c0.2,0.4,0.9,1.7,1.9,1.3c0.7-0.3,0.6-1.1,0.4-2.2l-0.2-1.1c-0.3-1.6-0.3-3.6,1.6-4.3
		c2.4-0.9,4.1,1.1,4.8,3c0.6,1.6,0.8,3.7-0.4,5.1L13,90.1c0.5-0.7,1-1.8,0.3-3.6c-0.4-1-1.2-1.7-2-1.3c-0.8,0.3-0.7,1-0.5,2.3
		l0.2,1.3c0.2,1.3,0.3,3.2-1.6,3.9c-1.7,0.7-3.6-0.2-4.6-2.7c-0.3-0.9-0.9-2.7,0.4-4.7L6.8,86.5z M11.5,74.1l-1.9,1l0.7,3.9l2.1,0.2
		l0.4,2L1.9,79.7l-0.4-2.1l9.6-5.5L11.5,74.1z M3.6,78.3l5,0.5l-0.5-2.9L3.6,78.3z M10.9,66.4L11,69L0.6,72.4l-0.1-2l8.3-2.7l-8.4-2
		l-0.1-2L10.9,66.4z M11,61.8L0.6,60.3l1-7.4l1.7,0.3l-0.7,5.5L5.1,59l0.7-5l1.6,0.2l-0.7,5l2.8,0.4l0.8-5.8L12,54L11,61.8z
		 M9.1,39.6c-1,0.3-1.4,0.8-1.7,1.2l2.2,0.9c0.1-0.2,0.8-1.3,1.6-1.8c1.1-0.6,2-0.3,2.6-0.1c1.8,0.8,2.2,2.7,1.7,4.4l1.5,0.6
		l-0.5,1.2L15,45.4c-0.9,1.3-1.4,1.9-3.2,2.4l-0.5-1.8c0.4-0.1,1.5-0.5,1.9-1.2l-2.7-1.1c-0.7,1.3-1.4,1.8-2.1,2
		c-0.3,0.1-0.9,0.1-1.5-0.2c-0.3-0.1-1-0.5-1.4-1.3c-0.3-0.5-0.5-1.4-0.2-2.8l-1.5-0.6l0.6-1.3l1.5,0.6c0.8-1.6,2.1-2.1,2.8-2.3
		L9.1,39.6z M6.8,42.1c-0.1,0.3-0.2,1.2,0.6,1.5c0.4,0.2,0.8,0.1,1.4-0.7L6.8,42.1z M13.8,43.5c0.1-0.4,0.2-1.4-0.7-1.8
		s-1.5,0.6-1.7,0.8L13.8,43.5z M14.5,30.1c-1,0.1-1.5,0.5-1.9,0.9l2,1.3c0.1-0.2,1-1.1,1.9-1.5c1.2-0.4,2.1,0.1,2.4,0.3
		c1.7,1.1,1.7,3.1,0.9,4.6l1.4,0.9l-0.6,1.2L19.3,37c-1.1,1.2-1.7,1.6-3.6,1.8L15.5,37c0.4,0,1.6-0.2,2.1-0.9l-2.4-1.5
		c-0.9,1.1-1.7,1.6-2.6,1.6c-0.3,0-0.9-0.1-1.4-0.4c-0.3-0.2-0.9-0.7-1.2-1.5c-0.2-0.6-0.3-1.5,0.3-2.8L9,30.7l0.7-1.1l1.3,0.8
		c1.1-1.4,2.4-1.7,3.1-1.8L14.5,30.1z M11.8,32.2c-0.1,0.3-0.4,1.2,0.3,1.6c0.4,0.3,0.8,0.2,1.5-0.5L11.8,32.2z M18.5,34.8
		c0.2-0.4,0.4-1.4-0.4-1.9c-0.8-0.5-1.6,0.3-1.8,0.5L18.5,34.8z M23.4,25.9l-2.6-2.6l2.6-2.6l2.6,2.6L23.4,25.9z"/>
</g>
</svg>
