<?xml version="1.0" encoding="utf-8"?>
<!-- Generator: Adobe Illustrator 26.0.3, SVG Export Plug-In . SVG Version: 6.00 Build 0)  -->
<svg version="1.1" id="Layer_1" xmlns="http://www.w3.org/2000/svg" xmlns:xlink="http://www.w3.org/1999/xlink" x="0px" y="0px"
	 width="114.8px" height="114.8px" viewBox="0 0 114.8 114.8" style="enable-background:new 0 0 114.8 114.8;" xml:space="preserve"
	>
<style type="text/css">
	.st0{fill:none;stroke:#231F20;stroke-width:0.75;stroke-miterlimit:10;}
	.st1{fill:#231F20;}
	.st2{fill-rule:evenodd;clip-rule:evenodd;fill:#231F20;}
</style>
<g>
	<g id="Layer_1_00000168096902353472270200000012138639515973329326_">
		<circle class="st0" cx="57.6" cy="57.3" r="56.4"/>
		<polygon class="st1" points="21.9,39.2 21.9,50.8 14.5,39.2 13.8,39.2 13.8,45.1 14.4,45.1 14.4,40.3 21.8,51.8 22.5,51.8 
			22.5,39.2 		"/>
		<rect x="29.1" y="39.2" class="st1" width="5.3" height="0.7"/>
		<rect x="29.1" y="42.5" class="st1" width="5.3" height="0.7"/>
		<rect x="29.1" y="51.1" class="st1" width="5.3" height="0.7"/>
		<rect x="95.4" y="39.2" class="st1" width="6" height="0.7"/>
		<polygon class="st1" points="65.9,39.2 65.9,39.8 69.9,39.8 73.9,39.8 73.9,39.2 		"/>
		<rect x="95.4" y="45.1" class="st1" width="6" height="0.7"/>
		<rect x="95.4" y="51.1" class="st1" width="6" height="0.7"/>
		<path class="st1" d="M49.6,45.1L49.6,45.1z M39.7,45.1c0.1,3,1.2,6.6,4.9,6.6c2.6,0,3.8-2.1,4.5-3.8v3.8h0.5v-6.6H45v0.5h4.1
			c0,1-0.3,2.1-0.8,3c-0.8,1.6-2,2.6-3.7,2.6c-3.4,0-4.5-3.8-4.5-6.2L39.7,45.1z"/>
		<path class="st1" d="M58.4,40.2l2.2,6.3h-4.4L58.4,40.2z M58.1,39.2l-2.9,8.7l0.6,0.2l0.3-0.9h4.7l1.6,4.7h0.6l-4.2-12.6
			L58.1,39.2z"/>
		<rect x="78.8" y="42.5" class="st1" width="0.7" height="9.3"/>
		<rect x="69.6" y="39.2" class="st1" width="0.7" height="12.6"/>
		<polygon class="st1" points="84.1,39.2 88.1,51.8 88.8,51.8 91.1,44.5 90.4,44.5 88.4,50.6 84.8,39.2 		"/>
		
			<image style="overflow:visible;opacity:5.000000e-02;enable-background:new    ;" width="490" height="167" xlink:href="B57092A6625D1666.png"  transform="matrix(0.24 0 0 0.24 -1.1712 50.6188)">
		</image>
		<path class="st2" d="M101.3,68.2c0-0.6-0.1-1.2-0.5-1.7c-0.5-0.5-1.1-0.9-1.8-0.9h-0.3c-1.5,0.2-2.7,1.4-2.8,2.9
			c0,0.1,0,0.3,0,0.4c0.1,1.5,1.3,2.7,2.8,2.7h0.5c1,0,1.8-0.7,2-1.6H101c-0.2,0.9-0.9,1.5-1.8,1.5h-0.4c-1.1,0-1.5-1.2-1.5-2.1
			c0-0.4,0-0.8,0-1.2L101.3,68.2z M97.2,68c0-0.6,0.3-2.1,1.4-2.1h0.3c0.3,0,0.5,0.1,0.7,0.3c0.2,0.2,0.3,0.5,0.4,0.8v1.2h-2.7V68z"
			/>
		<path class="st2" d="M15.4,65.8h2.2v6.5c0,0.2,0,0.4,0,0.5c0,0.6-0.2,1.1-0.4,1.6c-0.4,0.6-1,1-1.8,1c-0.5,0-1-0.2-1.4-0.6
			l0.2-0.1c0.3,0.3,0.7,0.4,1.2,0.5c0.6,0,1.1-0.5,1.1-1.1c0,0,0,0,0-0.1V66h-1V65.8z"/>
		<path class="st2" d="M34,65.7c0.9,0,1.7,0.7,1.7,1.6v4.1h1v0.2h-3.2v-0.2h1v-4.5c0-0.4-0.3-1-0.8-1c-0.1,0-0.2,0-0.3,0
			c-0.6,0.1-1.1,0.4-1.4,0.8c-0.3,0.4-0.5,0.9-0.5,1.4v3.3h1v0.2h-3.2v-0.2h1V66h-1v-0.2h2.2v1.4c0.1-0.1,0.1-0.1,0.1-0.2
			c0.4-0.8,1.1-1.3,1.9-1.3L34,65.7z"/>
		<path class="st2" d="M44,65.7c0.9-0.1,1.7,0.6,1.7,1.6c0,0,0,0,0,0v4.1h1v0.2h-3.2v-0.2h1v-4.4c0-0.4-0.3-1-0.9-1h-0.3
			c-0.8,0.1-1.4,0.6-1.7,1.4c-0.1,0.3-0.2,0.5-0.2,0.8v3.2h1v0.2h-3.1v-0.2h1V66h-1v-0.2h2.2v1.4c0.1-0.1,0.2-0.3,0.2-0.4
			c0.4-0.7,1.1-1.1,1.8-1.2H44z"/>
		<polygon class="st2" points="49.4,65.8 51.6,65.8 51.6,71.4 52.6,71.4 52.6,71.5 49.4,71.5 49.4,71.4 50.4,71.4 50.4,66 49.4,66 
					"/>
		<path class="st2" d="M59.9,65.8h2.2v2.5h0.1l2.6-2.3h-0.9v-0.2H66V66h-0.8l-2.1,1.8c1,1.2,2,2.4,2.9,3.6h0.6v0.2h-3v-0.2h0.9
			l-2.3-2.8h-0.1v2.8h0.7v0.2h-2.9v-0.2h1V66h-1V65.8z"/>
		<path class="st2" d="M75,71.2c-0.4,0.3-1.1,0.4-1.1-0.3v-3.5c-0.1-1-0.9-1.7-1.8-1.7h-0.5c-0.7,0-1.4,0.4-1.8,1
			c-0.1,0.1-0.1,0.3-0.2,0.4c0,0.1-0.1,0.1-0.1,0.2h0.2l0.1-0.3c0.3-0.7,0.9-1.2,1.7-1.2h0.4c0.6,0,0.9,0.5,0.9,1.1
			c0,0.4,0.1,1.1-0.3,1.3c-0.8,0.5-1.8,0.5-2.6,1c-0.3,0.2-0.6,0.6-0.6,1v0.3c0,0.8,0.8,1.2,1.5,1.2h0.5c0.7,0,1.3-0.4,1.5-1l0,0
			c0.1,0.6,0.6,1,1.1,1h0.4c0.3,0,0.6-0.2,0.8-0.3L75,71.2z M72.8,69.9c-0.1,1-0.5,1.6-1.3,1.6s-1-0.6-1-1.2c0-1.3,1.2-1.2,2.2-1.8
			c0.1,0,0.1-0.1,0.1-0.2l0,0L72.8,69.9z"/>
		<path class="st2" d="M92.3,71.4h1v0.2h-3.2v-0.2h1V67c0-0.5-0.3-1-0.9-1.1c-0.5,0-1,0.1-1.4,0.5c-0.5,0.5-0.8,1.1-0.8,1.7v3.3h1
			v0.2h-3.2v-0.2h1V66h-1v-0.2h2.2v1.4c0,0,0.1-0.1,0.1-0.2c0.4-0.8,1.1-1.3,2-1.4h0.4c0.9-0.1,1.7,0.6,1.7,1.6c0,0,0,0,0,0
			L92.3,71.4z"/>
		<path class="st2" d="M77,65.8h3.2V66h-1.1l1.7,4.2l1.8-4.2h-1.1v-0.2h2V66h-0.7c-0.7,1.7-1.4,3.4-2.2,5.1
			c-0.5,1.1-0.8,2.2-1.3,3.2c-0.4,0.9-1.3,1.3-2.2,1c0.2-0.3,0.2-0.1,0.5-0.1c0.8-0.1,1.5-0.6,1.8-1.4l0.8-2.1L77.9,66H77L77,65.8z"
			/>
		<path class="st2" d="M26.4,68.2c0-0.6-0.1-1.2-0.5-1.7c-0.5-0.5-1.1-0.9-1.8-0.9h-0.3c-1.5,0.2-2.7,1.4-2.8,2.9c0,0.1,0,0.3,0,0.4
			c0.1,1.5,1.3,2.7,2.8,2.7h0.5c1,0,1.8-0.7,2-1.7H26c-0.2,0.9-0.9,1.5-1.8,1.5h-0.4c-1,0-1.5-1.2-1.5-2.1c0-0.4,0-0.8,0-1.2
			L26.4,68.2z M22.3,68c0-0.6,0.3-2.1,1.4-2.1H24c0.5,0,1,0.5,1,1V68L22.3,68L22.3,68z"/>
		<path class="st1" d="M58.6,60.1l-1-1.2l-1,1.2h-0.4l1.2-1.5l-1.1-1.4h0.5l0.9,1.1l0.9-1.1h0.4l-1.1,1.4l1.2,1.5L58.6,60.1z"/>
	</g>
</g>
</svg>
