<?xml version="1.0" encoding="utf-8"?>
<!-- Generator: Adobe Illustrator 26.3.1, SVG Export Plug-In . SVG Version: 6.00 Build 0)  -->
<svg version="1.1" id="Layer_1" xmlns="http://www.w3.org/2000/svg" xmlns:xlink="http://www.w3.org/1999/xlink" x="0px" y="0px"
	 width="133.6px" height="133.6px" viewBox="0 0 133.6 133.6" style="enable-background:new 0 0 133.6 133.6;" xml:space="preserve"
	>
<circle style="fill:none;stroke:#FFFFFF;stroke-width:0.75;stroke-miterlimit:10;" cx="66.8" cy="66.8" r="65.9"/>
<rect x="6.4" y="52.3" style="fill:none;" width="120.9" height="29.1"/>
<g style="enable-background:new    ;">
	<path style="fill:#FFFFFF;" d="M22.3,59.8c0,1.2-0.5,2-1.4,2.5c-0.6,0.3-1.4,0.5-2.4,0.5H18h-4.2V52.3h3.8c0.7,0,1.2,0,1.6,0
		c0.8,0.1,1.4,0.4,1.9,0.9c0.4,0.5,0.7,1,0.7,1.7c0,0.2,0,0.3,0,0.5c0,0.2-0.1,0.4-0.3,0.7c-0.2,0.3-0.4,0.5-0.6,0.7
		C20.6,56.9,20.3,57,20,57c0.3,0.1,0.6,0.2,0.8,0.3C21.8,57.8,22.3,58.7,22.3,59.8z M19.7,55.2c0-0.3-0.1-0.5-0.3-0.7
		c-0.3-0.4-0.9-0.6-1.8-0.6h-0.4h-1.5v2.6h0.7c0.7,0,1.2,0,1.6,0c0.6,0,1.1-0.2,1.3-0.5C19.6,55.8,19.7,55.5,19.7,55.2z M20.2,59.7
		c0-0.7-0.3-1.1-0.9-1.4C19,58.1,18.3,58,17.2,58h-0.4h-1.1v3.1H18h0.3c0.8,0,1.3-0.2,1.6-0.5C20.1,60.4,20.2,60,20.2,59.7z"/>
	<path style="fill:#FFFFFF;" d="M32.7,58.4v0.5c0,0.9-0.1,1.5-0.2,1.9c-0.2,0.6-0.7,1.2-1.4,1.7c-0.7,0.5-1.6,0.7-2.8,0.7
		c-1.5,0-2.6-0.4-3.4-1.3c-0.3-0.3-0.5-0.7-0.7-1.1c-0.1-0.4-0.2-1.1-0.2-2.2v-6.3h2v6.5c0,0.6,0,1,0.1,1.2c0.3,0.8,1,1.3,2.2,1.3
		c1.1,0,1.9-0.4,2.1-1.2c0.1-0.3,0.1-0.7,0.1-1.3v-6.4h2V58.4z"/>
	<path style="fill:#FFFFFF;" d="M43.1,52.3l-3.6,6.4v4.2h-2v-4.2L34,52.3h2.2l2.3,4.4l2.3-4.4H43.1z"/>
</g>
<g style="enable-background:new    ;">
	<path style="fill:#FFFFFF;" d="M53.9,62.8H47v-1.5c1.4-1,2.6-2,3.5-3.1c0.7-0.8,1.1-1.6,1.1-2.5c0-0.4-0.1-0.8-0.3-1.1
		s-0.6-0.4-1-0.4c-0.4,0-0.6,0.1-0.9,0.3c-0.4,0.3-0.5,1-0.5,1.8v0.2L47,56.5c0-1.1,0.2-2,0.7-2.6c0.2-0.3,0.6-0.6,1-0.9
		c0.5-0.3,1-0.4,1.7-0.4c0.9,0,1.7,0.3,2.3,0.8c0.6,0.6,0.9,1.3,0.9,2.3c0,0.6-0.1,1.2-0.4,1.7c-0.1,0.2-0.2,0.4-0.4,0.6
		c-0.1,0.2-0.3,0.4-0.4,0.5c-0.1,0.1-0.3,0.3-0.5,0.5c-0.2,0.2-0.4,0.4-0.5,0.4c-0.1,0.1-0.3,0.2-0.6,0.5s-0.5,0.4-0.5,0.4
		c-0.5,0.4-0.9,0.7-1.1,0.9h4.4V62.8z"/>
</g>
<g style="enable-background:new    ;">
	<path style="fill:#FFFFFF;" d="M57.1,63.1c0,0.5-0.1,0.9-0.4,1.2c-0.3,0.3-0.7,0.5-1.2,0.6c-0.1,0-0.2,0-0.3,0.1v-0.9
		c0.5-0.1,0.8-0.5,0.8-1.2h-0.9v-2.1h2V63.1L57.1,63.1z"/>
</g>
<g style="enable-background:new    ;">
	<path style="fill:#FFFFFF;" d="M70.8,59.7c0,1-0.3,1.7-1,2.3c-0.9,0.7-2,1.1-3.5,1.1c-1.8,0-3.1-0.5-4.1-1.6
		c-0.2-0.2-0.4-0.5-0.5-0.7l1.7-1.2c0.7,1.1,1.8,1.6,3.3,1.6c0.3,0,0.6,0,0.8-0.1c0.1,0,0.3-0.1,0.4-0.1c0.2-0.1,0.3-0.2,0.5-0.4
		c0.2-0.2,0.3-0.5,0.3-0.8c0-0.2-0.1-0.5-0.2-0.6c-0.1-0.1-0.2-0.2-0.3-0.2c-0.1-0.1-0.2-0.1-0.4-0.2s-0.3-0.1-0.4-0.1
		c-0.1,0-0.2-0.1-0.4-0.1c-0.2,0-0.3-0.1-0.3-0.1l-1.3-0.3c-0.8-0.2-1.3-0.3-1.6-0.5c-1-0.5-1.5-1.3-1.5-2.5c0-0.6,0.1-1.1,0.4-1.6
		c0.3-0.5,0.7-0.9,1.4-1.2c0.6-0.3,1.4-0.5,2.4-0.5c1.8,0,3.2,0.7,4.3,2.1l-1.6,1.2c-0.7-1-1.6-1.6-2.7-1.6h0c-1,0-1.6,0.3-1.9,0.8
		c-0.1,0.1-0.1,0.3-0.1,0.5s0,0.3,0.1,0.5c0.1,0.2,0.3,0.3,0.6,0.4c0.3,0.1,0.7,0.2,1.3,0.3l1.1,0.2c0.6,0.1,1.2,0.3,1.7,0.5
		c0.5,0.2,0.8,0.5,1.2,0.8C70.6,58.4,70.8,59,70.8,59.7z"/>
	<path style="fill:#FFFFFF;" d="M80.9,62.8h-2.1l-0.6-2.1h-4l-0.6,2.1h-2.1L75,52.3h2.2L80.9,62.8z M77.6,59l-1.5-4.9L74.7,59H77.6z
		"/>
	<path style="fill:#FFFFFF;" d="M89.5,52.3l-3,10.6h-2.7l-3.1-10.6h2.1l2.4,8.4l2.3-8.4H89.5z"/>
	<path style="fill:#FFFFFF;" d="M98.7,62.8h-7.9V52.3h7.5V54h-5.6v2.5h5.1v1.7h-5.1v2.8h6V62.8z"/>
</g>
<g style="enable-background:new    ;">
	<path style="fill:#FFFFFF;" d="M112.6,59.6c0,0.9-0.3,1.6-0.9,2.2c-0.3,0.3-0.7,0.6-1.1,0.8c-0.3,0.1-0.8,0.2-1.4,0.3v1.7h-1.4
		v-1.7c-0.5-0.1-0.9-0.2-1.2-0.3c-0.3-0.1-0.6-0.3-1-0.5c-0.3-0.2-0.6-0.4-0.8-0.7c-0.1-0.1-0.3-0.3-0.5-0.6l1.5-1.2
		c0.3,0.4,0.6,0.7,1.1,1c0.3,0.1,0.4,0.2,0.5,0.3c0.1,0,0.2,0.1,0.4,0.1v-2.9c-1.3-0.1-2.3-0.6-2.7-1.2c-0.3-0.5-0.4-0.9-0.4-1.5
		c0-0.7,0.2-1.3,0.6-1.9c0.6-0.7,1.4-1.1,2.5-1.2v-1.6h1.4v1.6c1.3,0.1,2.4,0.7,3.2,1.6l-1.4,1.1c-0.2-0.3-0.4-0.5-0.7-0.7
		c-0.3-0.2-0.4-0.3-0.6-0.3c-0.1,0-0.3-0.1-0.6-0.2v2.4c1,0.1,1.7,0.4,2.3,0.9C112.3,57.8,112.6,58.6,112.6,59.6z M107.8,56.2V54
		c0,0-0.1,0-0.2,0c-0.1,0-0.2,0-0.2,0.1c-0.6,0.2-0.9,0.6-0.9,1.1c0,0.3,0.1,0.5,0.3,0.7C107.1,56,107.4,56.1,107.8,56.2z
		 M110.6,59.7c0-0.6-0.5-1.1-1.4-1.3v2.7c0.2,0,0.3-0.1,0.5-0.1C110.3,60.7,110.6,60.2,110.6,59.7z"/>
	<path style="fill:#FFFFFF;" d="M120.9,54.3c-0.3,0.4-0.7,0.8-1,1.4c-0.8,1.2-1.4,2.5-1.8,4c-0.3,1.1-0.5,2.1-0.6,3.2H115
		c0.1-0.5,0.2-1,0.3-1.6c0.1-0.5,0.3-1,0.4-1.4c0.1-0.4,0.3-0.8,0.5-1.3c0.2-0.5,0.4-0.8,0.5-1.1c0.1-0.3,0.3-0.6,0.6-1
		c0.3-0.4,0.4-0.7,0.5-0.8c0.1-0.1,0.3-0.4,0.5-0.7s0.4-0.5,0.4-0.5h-4.6v-1.8h6.7V54.3z"/>
</g>
<g style="enable-background:new    ;">
	<path style="fill:#FFFFFF;" d="M19.1,77.8c0,1.2-0.5,2-1.4,2.5c-0.6,0.3-1.4,0.5-2.4,0.5h-0.5h-4.2V70.3h3.8c0.7,0,1.2,0,1.6,0
		c0.8,0.1,1.4,0.4,1.9,0.9c0.4,0.5,0.7,1,0.7,1.7c0,0.2,0,0.3,0,0.5c0,0.2-0.1,0.4-0.3,0.7c-0.2,0.3-0.4,0.5-0.6,0.7
		c-0.2,0.1-0.5,0.2-0.8,0.3c0.3,0.1,0.6,0.2,0.8,0.3C18.6,75.8,19.1,76.7,19.1,77.8z M16.5,73.2c0-0.3-0.1-0.5-0.3-0.7
		c-0.3-0.4-0.9-0.6-1.8-0.6h-0.4h-1.5v2.6h0.7c0.7,0,1.2,0,1.6,0c0.6,0,1.1-0.2,1.3-0.5C16.4,73.8,16.5,73.5,16.5,73.2z M17,77.7
		c0-0.7-0.3-1.1-0.9-1.4C15.8,76.1,15.1,76,14,76h-0.4h-1.1v3.1h2.2h0.3c0.8,0,1.3-0.2,1.6-0.5C16.9,78.4,17,78,17,77.7z"/>
	<path style="fill:#FFFFFF;" d="M29.5,76.4v0.5c0,0.9-0.1,1.5-0.2,1.9c-0.2,0.6-0.7,1.2-1.4,1.7c-0.7,0.5-1.6,0.7-2.8,0.7
		c-1.5,0-2.6-0.4-3.4-1.3c-0.3-0.3-0.5-0.7-0.7-1.1c-0.1-0.4-0.2-1.1-0.2-2.2v-6.3h2v6.5c0,0.6,0,1,0.1,1.2c0.3,0.8,1,1.3,2.2,1.3
		c1.1,0,1.9-0.4,2.1-1.2c0.1-0.3,0.1-0.7,0.1-1.3v-6.4h2V76.4z"/>
	<path style="fill:#FFFFFF;" d="M39.9,70.3l-3.6,6.4v4.2h-2v-4.2l-3.5-6.4h2.3l2.3,4.4l2.3-4.4H39.9z"/>
</g>
<g style="enable-background:new    ;">
	<path style="fill:#FFFFFF;" d="M50.8,77.9c0,1-0.4,1.7-1,2.3c-0.6,0.5-1.5,0.8-2.6,0.8c-1.1,0-2-0.3-2.6-0.9
		c-0.6-0.6-0.9-1.4-0.9-2.5h2c0,0.1,0,0.2,0,0.3c0,0.1,0,0.2,0,0.4c0.1,0.3,0.2,0.5,0.5,0.8c0.2,0.2,0.6,0.3,1.1,0.3
		c0.3,0,0.6-0.1,0.8-0.2c0.5-0.3,0.8-0.7,0.8-1.4c0-0.3-0.1-0.6-0.3-0.9c-0.3-0.4-0.7-0.6-1.4-0.6H47l-0.5,0v-1.6c0.1,0,0.2,0,0.3,0
		c0.1,0,0.3,0,0.3,0c0.6,0,1-0.2,1.2-0.5c0.1-0.2,0.2-0.4,0.2-0.7c0-0.4-0.1-0.7-0.4-0.9c-0.2-0.2-0.6-0.4-0.9-0.4
		c-0.4,0-0.8,0.2-1.1,0.5c-0.2,0.3-0.4,0.7-0.4,1.2l-2-0.4c0.2-1.3,0.9-2.2,2-2.6c0.5-0.2,1-0.3,1.5-0.3c0.2,0,0.5,0,0.8,0.1
		c0.2,0,0.3,0.1,0.5,0.1s0.4,0.1,0.6,0.3c0.3,0.1,0.5,0.3,0.7,0.5c0.2,0.2,0.3,0.4,0.5,0.7s0.2,0.7,0.2,1c0,0.8-0.3,1.5-0.9,1.8
		c-0.2,0.1-0.5,0.2-0.8,0.3c0.5,0.1,1,0.4,1.4,0.8C50.6,76.6,50.8,77.2,50.8,77.9z"/>
</g>
<g style="enable-background:new    ;">
	<path style="fill:#FFFFFF;" d="M53.9,81.1c0,0.5-0.1,0.9-0.4,1.2c-0.3,0.3-0.7,0.5-1.2,0.6c-0.1,0-0.2,0-0.3,0.1v-0.9
		c0.5-0.1,0.8-0.5,0.8-1.2h-0.9v-2.1h2V81.1L53.9,81.1z"/>
</g>
<g style="enable-background:new    ;">
	<path style="fill:#FFFFFF;" d="M67.7,77.7c0,1-0.3,1.7-1,2.3c-0.9,0.7-2,1.1-3.5,1.1c-1.8,0-3.1-0.5-4.1-1.6
		c-0.2-0.2-0.4-0.5-0.5-0.7l1.7-1.2c0.7,1.1,1.8,1.6,3.3,1.6c0.3,0,0.6,0,0.8-0.1c0.1,0,0.3-0.1,0.4-0.1c0.2-0.1,0.3-0.2,0.5-0.4
		s0.3-0.5,0.3-0.8c0-0.2-0.1-0.5-0.2-0.6c-0.1-0.1-0.2-0.2-0.3-0.2c-0.1-0.1-0.2-0.1-0.4-0.2s-0.3-0.1-0.4-0.1
		c-0.1,0-0.2-0.1-0.4-0.1c-0.2,0-0.3-0.1-0.3-0.1l-1.3-0.3c-0.8-0.2-1.3-0.3-1.6-0.5c-1-0.5-1.5-1.3-1.5-2.5c0-0.6,0.1-1.1,0.4-1.6
		c0.3-0.5,0.7-0.9,1.4-1.2s1.4-0.5,2.4-0.5c1.8,0,3.2,0.7,4.3,2.1L66,73.3c-0.7-1-1.6-1.6-2.7-1.6h0c-1,0-1.6,0.3-1.9,0.8
		c-0.1,0.1-0.1,0.3-0.1,0.5s0,0.3,0.1,0.5c0.1,0.2,0.3,0.3,0.6,0.4c0.3,0.1,0.7,0.2,1.3,0.3l1.1,0.2c0.6,0.1,1.2,0.3,1.6,0.5
		c0.5,0.2,0.9,0.5,1.2,0.8C67.5,76.4,67.7,77,67.7,77.7z"/>
	<path style="fill:#FFFFFF;" d="M77.8,80.8h-2.1L75,78.8h-4l-0.6,2.1h-2.1l3.6-10.6h2.2L77.8,80.8z M74.5,77L73,72.2L71.6,77H74.5z"
		/>
	<path style="fill:#FFFFFF;" d="M86.4,70.3l-3,10.6h-2.7l-3.1-10.6h2.1l2.4,8.4l2.3-8.4H86.4z"/>
	<path style="fill:#FFFFFF;" d="M95.6,80.8h-7.9V70.3h7.5V72h-5.6v2.5h5.1v1.7h-5.1v2.8h6V80.8z"/>
</g>
<g style="enable-background:new    ;">
	<path style="fill:#FFFFFF;" d="M109.1,77.6c0,0.9-0.3,1.6-0.9,2.2c-0.3,0.3-0.7,0.6-1.1,0.8c-0.3,0.1-0.8,0.2-1.4,0.3v1.7h-1.4
		v-1.7c-0.5-0.1-0.9-0.2-1.2-0.3c-0.3-0.1-0.6-0.3-1-0.5c-0.3-0.2-0.6-0.4-0.8-0.7c-0.1-0.1-0.3-0.3-0.5-0.6l1.5-1.2
		c0.3,0.4,0.6,0.7,1.1,1c0.3,0.1,0.4,0.2,0.5,0.3c0.1,0,0.2,0.1,0.4,0.1v-2.9c-1.3-0.1-2.3-0.6-2.7-1.2c-0.3-0.5-0.4-0.9-0.4-1.5
		c0-0.7,0.2-1.3,0.6-1.9c0.6-0.7,1.4-1.1,2.5-1.2v-1.6h1.4v1.6c1.3,0.1,2.4,0.7,3.2,1.6l-1.4,1.1c-0.2-0.3-0.4-0.5-0.7-0.7
		c-0.3-0.2-0.4-0.3-0.6-0.3c-0.1,0-0.3-0.1-0.6-0.2v2.4c1,0.1,1.7,0.4,2.3,0.9C108.7,75.8,109.1,76.6,109.1,77.6z M104.3,74.2V72
		c0,0-0.1,0-0.2,0c-0.1,0-0.2,0-0.2,0.1c-0.6,0.2-0.9,0.6-0.9,1.1c0,0.3,0.1,0.5,0.3,0.7C103.6,74,103.9,74.1,104.3,74.2z
		 M107.1,77.7c0-0.6-0.5-1.1-1.4-1.3v2.7c0.2,0,0.3-0.1,0.5-0.1C106.8,78.7,107.1,78.2,107.1,77.7z"/>
</g>
<g style="enable-background:new    ;">
	<path style="fill:#FFFFFF;" d="M114.3,80.8h-1.8v-5.8v-0.4c0-0.3-0.1-0.5-0.2-0.6c-0.1-0.1-0.3-0.2-0.6-0.2h-0.1h-1.6v-1.2h0.2
		c0.8,0,1.4-0.1,1.8-0.4c0.4-0.3,0.7-0.8,0.9-1.5h1.5V80.8z"/>
</g>
<g style="enable-background:new    ;">
	<path style="fill:#FFFFFF;" d="M123.5,77.2c0,1-0.3,1.9-0.9,2.5c-0.7,0.8-1.7,1.2-2.9,1.2c-1,0-1.7-0.2-2.3-0.7
		c-0.7-0.5-1.1-1.3-1.1-2.3l2.1-0.1c0,0.4,0.2,0.8,0.4,1.1c0.3,0.3,0.6,0.4,1,0.4h0c0.3,0,0.6-0.1,0.8-0.2c0.3-0.2,0.5-0.4,0.6-0.8
		c0.1-0.4,0.2-0.7,0.2-1.1c0-0.3,0-0.5-0.1-0.8c-0.1-0.2-0.1-0.3-0.2-0.5c-0.1-0.1-0.3-0.3-0.5-0.5c-0.2-0.2-0.5-0.2-0.8-0.2
		c-0.1,0-0.3,0-0.4,0c-0.2,0-0.4,0.1-0.6,0.3c-0.2,0.2-0.4,0.4-0.5,0.6l-1.7-0.1l0.7-5.6h5.6l-0.2,1.7h-3.9l-0.3,2.2
		c0.1-0.1,0.2-0.2,0.2-0.2c0.5-0.3,1-0.5,1.7-0.5c0.9,0,1.6,0.3,2.2,0.9S123.5,76.2,123.5,77.2z"/>
</g>
</svg>
