<?xml version="1.0" encoding="utf-8"?>
<!-- Generator: Adobe Illustrator 26.0.1, SVG Export Plug-In . SVG Version: 6.00 Build 0)  -->
<svg version="1.1" id="Layer_1" xmlns="http://www.w3.org/2000/svg" xmlns:xlink="http://www.w3.org/1999/xlink" x="0px" y="0px"
	 width="144px" height="144px" viewBox="0 0 144 144" enable-background="new 0 0 144 144" xml:space="preserve">
<g>
	<path d="M21.6,28.2l1.1,0.7l-0.6,1l-1.2-0.7l-0.3,1.3l-1.1-0.3l0.3-1.2l-1.3,0.1L18.4,28l1.3-0.1l-0.5-1.3l1.1-0.4l0.5,1.3l1.1-0.9
		l0.7,0.9L21.6,28.2z"/>
</g>
<g>
	<path d="M130.1,106.3l0.2,1.4l-1.2,0.2l-0.2-1.4l-1.3,0.6l-0.5-1.1l1.2-0.6l-1-1l0.9-0.8l1,1l0.7-1.2l1,0.6l-0.7,1.2l1.4,0.3
		l-0.2,1.2L130.1,106.3z"/>
</g>
<g>
	<path d="M122.6,114.5l0.5,0.7l-0.6,0.5l-0.6-0.7l-0.5,0.7l-0.6-0.5l0.5-0.7l-0.9-0.3l0.2-0.7l0.9,0.3v-0.9h0.8v0.9l0.9-0.3l0.3,0.7
		L122.6,114.5z"/>
</g>
<circle fill="none" stroke="#000000" stroke-width="0.75" stroke-miterlimit="10" cx="72" cy="72.3" r="56.4"/>
<g>
	<path d="M45.2,69.5v-4.4h-4.1v4.4h-1.8v-9.7h1.8v3.6h4.1v-3.6H47v9.7H45.2z"/>
	<path d="M58.1,68.3c-0.2,0.2-0.8,0.8-1.6,1.1c-0.3,0.1-0.9,0.3-1.7,0.3c-1.4,0-2.4-0.5-3.3-1.5c-0.9-1-1.3-2.2-1.3-3.6
		c0-0.3,0-1.1,0.3-1.9c0.6-1.9,2.3-3.2,4.4-3.2c1.9,0,3,1,3.4,1.5c0.5,0.6,1.2,1.7,1.2,3.5C59.4,65.2,59.3,66.9,58.1,68.3z M57,62.5
		c-0.5-0.8-1.3-1.3-2.2-1.3c-0.6,0-1,0.2-1.2,0.3c-0.7,0.4-1.5,1.3-1.5,3.1c0,0.4,0,2.1,1.4,3C54,68,54.6,68,54.8,68s0.6,0,1.1-0.2
		c0.7-0.3,1.6-1.1,1.7-3C57.6,64,57.5,63.2,57,62.5z"/>
	<path d="M62.5,69.5v-9.7h1.8v8h3.8v1.6L62.5,69.5L62.5,69.5z"/>
	<path d="M71,69.5v-9.7h1.8v9.7H71z"/>
	<path d="M81.7,69.2c-0.8,0.3-1.5,0.3-2.4,0.3h-3.1v-9.7h3.5c0.4,0,1,0,1.4,0.1c0.5,0.1,1.5,0.4,2.3,1.5c0.4,0.6,1,1.6,1,3.4
		C84.4,66.6,83.7,68.6,81.7,69.2z M81.6,62.1c-0.2-0.1-0.5-0.4-1-0.5s-0.7-0.1-1.6-0.1h-1v6.4h0.5c1,0,1.5,0,2-0.1
		c0.2,0,0.9-0.2,1.4-0.8c0.6-0.8,0.6-2.2,0.6-2.3C82.5,63.3,82.1,62.5,81.6,62.1z"/>
	<path d="M93.1,69.5l-0.6-1.9h-3.6l-0.6,1.9h-1.9l3.3-9.7h2.1l3.3,9.7H93.1z M90.7,61.5L89.4,66H92L90.7,61.5z"/>
	<path d="M100.8,65.6v3.8H99v-3.8l-3.2-5.8h2.1l2.1,4l2.1-4h2L100.8,65.6z"/>
	<path d="M29.9,84.8v-9.7h6.9v1.6h-5.1V79h4.7v1.6h-4.7v2.6h5.4v1.6H29.9z"/>
	<path d="M45.4,84.8l-2.3-3.6l-2.2,3.6h-2.1l3.2-5.2l-2.8-4.4h2.1l1.8,2.8l1.7-2.8h2.1l-2.7,4.4l3.3,5.2H45.4z"/>
	<path d="M57.4,83.4C56.9,84,55.9,85,54,85c-0.3,0-1.1,0-1.9-0.4c-1.1-0.5-2.6-1.8-2.6-4.7c0-0.5,0-1.9,0.9-3.2
		c0.5-0.7,1.6-1.9,3.7-1.9c1.8,0,2.8,0.9,3.3,1.5c0.3,0.5,0.5,0.9,0.7,1.5l-1.8,0.5c0-0.1-0.1-0.4-0.2-0.8c-0.4-0.7-1.1-1-1.9-1
		c-0.5,0-0.9,0.2-1.1,0.3c-0.7,0.4-1.5,1.3-1.5,3.1c0,0.3,0,1.4,0.6,2.3c0.2,0.3,0.4,0.5,0.7,0.7c0.6,0.4,1.1,0.4,1.4,0.4
		c0.8,0,1.3-0.3,1.8-0.9c0.2-0.2,0.3-0.5,0.4-0.6c0.1-0.1,0.1-0.2,0.2-0.5l1.7,0.7C57.9,82.6,57.7,83,57.4,83.4z"/>
	<path d="M60.8,84.8v-9.7h1.8v8h3.8v1.6L60.8,84.8L60.8,84.8z"/>
	<path d="M76.9,82.9c-0.3,1-1.4,2.2-3.8,2.2c-1.1,0-2.3-0.3-3.1-1.1c-0.1-0.1-0.5-0.5-0.6-1c-0.2-0.5-0.2-0.9-0.2-2v-5.7H71v5.9
		c0,0.6,0,0.8,0.1,1.1c0.2,0.6,0.7,1.1,2,1.1c0.2,0,1.6,0,2-1.1c0.1-0.3,0.1-0.6,0.1-1.2v-5.8H77v5.6C77.1,81.9,77.1,82.3,76.9,82.9
		z"/>
	<path d="M87.2,84.1c-1.2,1-2.7,1-3.2,1c-0.6,0-2.4,0-3.8-1.4c-0.2-0.2-0.3-0.4-0.5-0.6l1.5-1.1c0.4,0.6,1.2,1.5,3,1.5
		c0.1,0,0.4,0,0.7-0.1c0.2,0,1.1-0.3,1.1-1.2c0-0.1,0-0.4-0.2-0.6c-0.3-0.4-1.2-0.6-1.7-0.7L83,80.6c-0.5-0.1-1-0.2-1.5-0.5
		c-0.5-0.2-1.4-0.8-1.4-2.2c0-0.2,0-0.8,0.4-1.4c0.4-0.7,1.5-1.6,3.4-1.6c0.9,0,2.6,0.1,3.9,2L86.6,78c-0.3-0.5-1-1.4-2.5-1.4
		c-0.1,0-1.3,0-1.7,0.7c-0.1,0.2-0.1,0.3-0.1,0.4c0,0.2,0,0.3,0.1,0.4c0.2,0.4,0.8,0.5,1.7,0.7l1,0.2c0.9,0.2,1.9,0.5,2.6,1.2
		c0.3,0.3,0.6,0.7,0.6,1.6C88.2,82.8,87.9,83.5,87.2,84.1z"/>
	<path d="M91.1,84.8v-9.7h1.8v9.7H91.1z"/>
	<path d="M100.8,84.8h-2.4l-2.8-9.7h1.9l2.2,7.6l2.1-7.6h1.9L100.8,84.8z"/>
	<path d="M106.1,84.8v-9.7h6.9v1.6h-5.1V79h4.7v1.6h-4.7v2.6h5.4v1.6H106.1z"/>
</g>
</svg>
