<?xml version="1.0" encoding="utf-8"?>
<!-- Generator: Adobe Illustrator 25.4.1, SVG Export Plug-In . SVG Version: 6.00 Build 0)  -->
<svg version="1.1" id="Layer_1" xmlns="http://www.w3.org/2000/svg" xmlns:xlink="http://www.w3.org/1999/xlink" x="0px" y="0px"
	 width="144px" height="144px" viewBox="0 0 144 144" enable-background="new 0 0 144 144" xml:space="preserve">
<path fill="none" stroke="#FFFFFF" stroke-width="0.75" stroke-miterlimit="10" d="M72,6.1c36.4,0,65.9,29.5,65.9,65.9
	s-29.5,65.9-65.9,65.9S6.1,108.4,6.1,72S35.6,6.1,72,6.1z M43.9,52.1v-2.3c0-1.3,0.7-1.9,1.9-2.2v0.9C45,48.8,45,49,45,49.9h1v2.2
	H43.9z M46.7,52.1v-2.4c-0.1-0.6,0.2-1.2,0.7-1.5c0.4-0.3,0.8-0.4,1.3-0.5v0.8c-0.8,0.3-0.9,0.5-0.9,1.3h1v2.2L46.7,52.1z
	 M58.1,58.5c-1,0.4-2,0.6-3.1,0.5h-4.4V47.8h4c0.6,0,1.1,0,1.7,0c0.8,0,1.5,0.4,2,0.9c0.5,0.5,0.7,1.1,0.7,1.8c0,0.8-0.4,1.5-1,2
	c-0.3,0.2-0.5,0.3-0.8,0.3c0.3,0.1,0.6,0.2,0.9,0.3c1,0.5,1.6,1.6,1.5,2.7C59.6,56.9,59.1,58,58.1,58.5z M56.6,50.1
	c-0.5-0.7-1.5-0.6-2.3-0.6h-1.6v2.8h0.7c0.6,0,1.1,0,1.7,0c0.5,0,1-0.2,1.4-0.5c0.2-0.2,0.4-0.5,0.4-0.9
	C56.9,50.6,56.8,50.3,56.6,50.1z M56.5,54.2c-0.9-0.3-1.8-0.4-2.7-0.3h-1.2v3.3h2.4c0.7,0.1,1.5-0.1,2-0.6c0.2-0.3,0.4-0.6,0.3-1
	C57.4,55,57.1,54.4,56.5,54.2z M62.5,59V47.8h8v1.9h-5.9v2.7h5.5v1.8h-5.5v3H71V59L62.5,59z M81.3,58.2c-1.1,0.8-2.4,1.2-3.7,1.2
	c-1.6,0.1-3.2-0.5-4.4-1.7c-0.2-0.2-0.4-0.5-0.5-0.7l1.8-1.2c0.8,1.2,2.1,1.8,3.5,1.7c0.3,0,0.6,0,0.8-0.1c0.2,0,1.3-0.3,1.3-1.4
	c0-0.2-0.1-0.5-0.2-0.7c-0.4-0.5-1.4-0.7-2-0.8l-1.3-0.3c-0.6-0.1-1.2-0.3-1.7-0.5c-1-0.5-1.6-1.5-1.6-2.6c0-0.6,0.2-1.2,0.4-1.7
	c0.5-0.9,1.7-1.9,4-1.9c1.8-0.1,3.5,0.8,4.6,2.3l-1.7,1.3c-0.6-1.1-1.7-1.7-2.9-1.7c-0.1,0-1.5,0-2,0.9c-0.1,0.2-0.1,0.3-0.1,0.5
	c0,0.2,0,0.4,0.1,0.5c0.3,0.5,0.9,0.6,1.9,0.8l1.2,0.2c1.1,0.1,2.2,0.7,3,1.4c0.5,0.5,0.7,1.2,0.7,1.9C82.4,56.7,82,57.6,81.3,58.2z
	 M89.4,49.7v9.4h-2.1v-9.4h-3.1v-1.9h8.3v1.9H89.4z M24,67.7v9.4h-2.1v-9.4h-3.1v-1.9h8.3v1.9H24z M27.7,73.1v-1.8h4.6v1.8H27.7z
	 M42.3,76.2c-1.1,0.8-2.4,1.2-3.7,1.2c-1.6,0.1-3.2-0.5-4.4-1.7c-0.2-0.2-0.4-0.5-0.5-0.7l1.8-1.2c0.8,1.2,2.1,1.8,3.6,1.7
	c0.3,0,0.6,0,0.8-0.1c0.2,0,1.3-0.3,1.3-1.4c0-0.2-0.1-0.5-0.2-0.7c-0.4-0.5-1.4-0.7-2-0.8l-1.3-0.3c-0.6-0.1-1.2-0.3-1.7-0.5
	c-1-0.5-1.6-1.5-1.6-2.6c0-0.6,0.1-1.2,0.4-1.7c0.9-1.3,2.4-2,4-1.9c1.8-0.1,3.5,0.8,4.6,2.3l-1.8,1.3c-0.6-1.1-1.7-1.7-2.9-1.7
	c-0.1,0-1.5,0-2,0.9c-0.1,0.2-0.1,0.3-0.1,0.5c0,0.2,0,0.4,0.1,0.5c0.3,0.5,0.9,0.6,1.9,0.8l1.2,0.2c1.1,0.1,2.2,0.6,3,1.4
	c0.5,0.5,0.7,1.2,0.7,1.9C43.4,74.7,43,75.6,42.3,76.2z M52.6,77.1v-5.1h-4.9v5.1h-2.1V65.8h2.1V70h4.8v-4.2h2.1v11.3H52.6z
	 M57.6,77.1V65.8h2.1v11.3H57.6z M68.5,77.1l-2.2-4.2h-1.9v4.2h-2.1V65.8h4.6c1.2,0,2.3,0.5,3,1.4c0.5,0.6,0.7,1.4,0.7,2.2
	c0,0.4-0.1,0.9-0.2,1.3c-0.4,0.9-1.1,1.6-2,1.8l2.5,4.6L68.5,77.1z M67.8,67.9c-0.5-0.3-1.1-0.4-1.7-0.3h-1.7v3.5h0.8
	c0.8,0.1,1.7,0,2.5-0.3c0.8-0.5,1.1-1.6,0.6-2.4C68.1,68.2,67.9,68,67.8,67.9z M77.5,67.7v9.4h-2.1v-9.4h-3.1v-1.9h8.3v1.9H77.5z
	 M94,76.5c-1,0.4-2,0.6-3.1,0.5h-4.4V65.8h4.1c0.6,0,1.1,0,1.7,0c0.8,0,1.5,0.4,2,0.9c0.5,0.5,0.8,1.2,0.8,1.9c0,0.8-0.4,1.5-1,2
	c-0.3,0.2-0.5,0.3-0.8,0.3c0.3,0.1,0.6,0.2,0.9,0.3c1,0.5,1.6,1.6,1.5,2.7C95.6,74.9,95,76,94,76.5z M92.5,68.1
	c-0.5-0.7-1.5-0.6-2.3-0.6h-1.6v2.8h0.7c0.6,0,1.1,0,1.7,0c0.5,0,1-0.2,1.4-0.5c0.2-0.2,0.4-0.6,0.3-0.9
	C92.8,68.6,92.7,68.3,92.5,68.1L92.5,68.1z M92.4,72.2c-0.9-0.3-1.8-0.4-2.7-0.3h-1.2v3.3H91c0.7,0.1,1.5-0.1,2-0.6
	c0.2-0.3,0.4-0.6,0.3-1C93.4,73,93,72.4,92.4,72.2L92.4,72.2z M104.4,77.1l-2.2-4.2h-1.9v4.2h-2.1V65.8h4.6c1.2,0,2.3,0.5,3,1.4
	c0.5,0.6,0.7,1.4,0.7,2.2c0,0.4-0.1,0.9-0.2,1.3c-0.4,0.9-1.1,1.6-2,1.8l2.5,4.6L104.4,77.1z M103.7,67.9c-0.5-0.3-1.1-0.4-1.7-0.3
	h-1.7v3.5h0.8c0.8,0.1,1.7,0,2.5-0.3c0.8-0.5,1.1-1.6,0.6-2.4C104,68.2,103.8,68,103.7,67.9z M116.4,77.1l-0.7-2.2h-4.2l-0.7,2.2
	h-2.3l3.8-11.3h2.4l3.9,11.3H116.4z M113.6,67.8l-1.6,5.2h3.1L113.6,67.8z M120.9,69.7c-0.4,0.3-0.8,0.4-1.3,0.4v-0.8
	c0.5-0.1,0.9-0.6,0.9-1.1c0-0.1,0-0.2,0-0.2h-1v-2.2h2.1v2.5C121.7,68.8,121.4,69.4,120.9,69.7z M122.4,70.2v-0.9
	c0.8-0.2,0.8-0.6,0.8-1.4h-1v-2.2h2.1V68C124.3,69.4,123.7,70,122.4,70.2z M30.6,95.1l-1.7-3.3h-1.5v3.3h-1.6v-8.8h3.6
	c0.9,0,1.8,0.4,2.4,1.1c0.4,0.5,0.5,1.1,0.5,1.7c0,0.3-0.1,0.7-0.2,1c-0.3,0.7-0.9,1.2-1.6,1.4l2,3.6L30.6,95.1z M30,87.9
	c-0.4-0.2-0.9-0.3-1.3-0.3h-1.3v2.8H28c0.7,0.1,1.4,0,2-0.2c0.4-0.3,0.6-0.7,0.6-1.2C30.6,88.6,30.4,88.1,30,87.9z M34.5,95.1v-8.8
	h6.3v1.5h-4.6v2.1h4.3v1.4h-4.3v2.4h5V95L34.5,95.1z M48.5,95.1L48,93.3h-3.3l-0.5,1.7h-1.8l3-8.8h1.9l3,8.8H48.5z M46.4,87.8
	l-1.2,4.1h2.4L46.4,87.8z M52.7,95.1v-8.8h1.7v7.3h3.5v1.5H52.7z M70.3,94.4c-0.8,0.6-1.9,0.9-2.9,0.9c-1.3,0.1-2.5-0.4-3.4-1.3
	c-0.2-0.2-0.3-0.4-0.4-0.6l1.4-1c0.6,0.9,1.7,1.4,2.7,1.3c0.2,0,0.4,0,0.7-0.1c0.2,0,1-0.3,1-1.1c0-0.2-0.1-0.4-0.2-0.5
	c-0.3-0.4-1.1-0.5-1.5-0.6l-1-0.2c-0.5-0.1-0.9-0.2-1.3-0.4c-0.8-0.4-1.3-1.1-1.3-2c0-0.5,0.1-0.9,0.3-1.3c0.7-1,1.9-1.6,3.2-1.5
	c1.4,0,2.7,0.6,3.6,1.8l-1.4,1c-0.5-0.8-1.3-1.3-2.3-1.3c-0.1,0-1.2,0-1.6,0.7c-0.1,0.1-0.1,0.3-0.1,0.4c0,0.1,0,0.3,0.1,0.4
	c0.2,0.4,0.7,0.5,1.5,0.7l0.9,0.2c0.9,0.1,1.7,0.5,2.3,1.1c0.4,0.4,0.5,0.9,0.5,1.5C71.2,93.2,70.9,93.9,70.3,94.4z M73.6,95.1v-8.8
	h1.6v8.8H73.6z M84.8,95.1l0.2-7.2l-1.9,7.2h-1.5l-1.9-7.2l0.2,7.2h-1.6v-8.8h2.4l1.7,6.6l1.7-6.6h2.4v8.8H84.8z M95.1,91.6
	c-0.7,0.4-1.6,0.6-2.4,0.5h-1.3v3h-1.7v-8.8h3c0.2,0,0.4,0,0.6,0c0.9,0,1.7,0.4,2.3,1c0.4,0.5,0.7,1.2,0.7,1.9
	C96.4,90.1,95.9,91,95.1,91.6z M94.4,88.3c-0.4-0.7-1.1-0.7-1.8-0.7h-1.3v3.1h1.5c0.8,0,1.2-0.3,1.4-0.7c0.2-0.3,0.2-0.6,0.2-0.9
	C94.6,88.8,94.5,88.5,94.4,88.3z M98,95.1v-8.8h1.7v7.3h3.5v1.5H98z M105,95.1v-8.8h6.3v1.5h-4.7v2.1h4.3v1.4h-4.3v2.4h5V95
	L105,95.1z"/>
</svg>
